<svg width="20" height="21" viewBox="0 0 20 21" fill="none" xmlns="http://www.w3.org/2000/svg">
<path d="M11.67 10.089C11.7638 9.71863 11.7598 9.33024 11.6583 8.96188C11.5569 8.59351 11.3615 8.25781 11.0914 7.98764C10.8212 7.71748 10.4855 7.52211 10.1171 7.42068C9.74878 7.31925 9.36039 7.31523 8.99001 7.40901C8.22001 7.59901 7.59001 8.22901 7.40001 8.99901C7.30622 9.3694 7.31025 9.75779 7.41168 10.1261C7.51311 10.4945 7.70848 10.8302 7.97864 11.1004C8.24881 11.3705 8.58451 11.5659 8.95287 11.6673C9.32123 11.7688 9.70963 11.7728 10.08 11.679C10.86 11.489 11.49 10.859 11.67 10.089Z" fill="white" fill-opacity="0.7"/>
<path d="M3.56 16.72C3.38 16.72 3.19 16.65 3.05 16.52C2.08992 15.6281 1.32367 14.5481 0.798957 13.3473C0.274241 12.1464 0.00228058 10.8505 0 9.54C0 4.28 4.28 0 9.54 0C14.8 0 19.08 4.28 19.08 9.54C19.08 12.2 18.01 14.66 16.07 16.49C15.77 16.77 15.29 16.76 15.01 16.46C14.73 16.16 14.74 15.68 15.04 15.4C15.8448 14.6534 16.486 13.7481 16.9232 12.7412C17.3604 11.7343 17.584 10.6477 17.58 9.55C17.58 5.12 13.97 1.51 9.54 1.51C5.11 1.51 1.5 5.12 1.5 9.55C1.5 11.81 2.41 13.89 4.07 15.43C4.37 15.71 4.39 16.19 4.11 16.49C3.96435 16.6365 3.76656 16.7192 3.56 16.72Z" fill="white" fill-opacity="0.7"/>
<path d="M13.5401 14.049C13.3942 14.0489 13.2515 14.006 13.1298 13.9256C13.008 13.8452 12.9125 13.7309 12.855 13.5969C12.7976 13.4628 12.7807 13.3148 12.8065 13.1712C12.8322 13.0276 12.8995 12.8947 13.0001 12.789C13.8301 11.909 14.2901 10.749 14.2901 9.54899C14.2901 6.92899 12.1601 4.80899 9.55006 4.80899C8.29374 4.81163 7.08964 5.31187 6.20129 6.20022C5.31294 7.08857 4.8127 8.29268 4.81006 9.54899C4.81006 10.759 5.27006 11.909 6.10006 12.789C6.38006 13.089 6.37006 13.569 6.07006 13.849C5.77006 14.139 5.29006 14.119 5.01006 13.819C3.91991 12.6643 3.31182 11.137 3.31006 9.54899C3.31006 6.10899 6.11006 3.30899 9.55006 3.30899C12.9901 3.30899 15.7901 6.10899 15.7901 9.54899C15.7901 11.139 15.1901 12.659 14.0901 13.819C13.9444 13.9655 13.7466 14.0482 13.5401 14.049ZM7.84006 15.41L6.40006 17.2C5.26006 18.63 6.28006 20.75 8.10006 20.75H10.9701C12.8001 20.75 13.8201 18.63 12.6701 17.21L11.2301 15.42C11.0286 15.1634 10.7717 14.9558 10.4786 14.8127C10.1854 14.6696 9.86367 14.5948 9.53748 14.5939C9.21129 14.5929 8.88911 14.6658 8.59513 14.8072C8.30115 14.9485 8.043 15.1546 7.84006 15.41Z" fill="white" fill-opacity="0.7"/>
</svg>
